<?xml version="1.0" encoding="UTF-8"?>
<svg version="1.1" xmlns="http://www.w3.org/2000/svg" width="400" height="400">
<path d="M0 0 C132 0 264 0 400 0 C400 132 400 264 400 400 C268 400 136 400 0 400 C0 268 0 136 0 0 Z " fill="#EBEBEB" transform="translate(0,0)"/>
<path d="M0 0 C0.33 0 0.66 0 1 0 C1 109.56 1 219.12 1 332 C-86.78 332 -174.56 332 -265 332 C-265 281.84 -265 231.68 -265 180 C-261 180 -261 180 -258.921875 181.72265625 C-258.20515625 182.49480469 -257.4884375 183.26695312 -256.75 184.0625 C-254.07335721 186.91986502 -251.35206238 189.59113995 -248.37890625 192.1328125 C-242.52911578 197.19062923 -237.1846526 202.75796219 -231.7590332 208.26147461 C-230.37654966 209.6620081 -228.99105139 211.0595637 -227.60546875 212.45703125 C-226.79231201 213.28178955 -225.97915527 214.10654785 -225.14135742 214.95629883 C-222.97577525 217.14122979 -222.97577525 217.14122979 -220 219 C-220 219.66 -220 220.32 -220 221 C-219.4323291 221.24024902 -218.8646582 221.48049805 -218.27978516 221.72802734 C-215.53439923 223.25977511 -213.71271722 225.0956465 -211.5234375 227.3515625 C-210.688125 228.20234375 -209.8528125 229.053125 -208.9921875 229.9296875 C-208.12851563 230.81914062 -207.26484375 231.70859375 -206.375 232.625 C-204.65826847 234.39252241 -202.93714292 236.15579134 -201.2109375 237.9140625 C-200.45087402 238.6973291 -199.69081055 239.4805957 -198.90771484 240.28759766 C-197.17919728 242.22266183 -197.17919728 242.22266183 -195 242 C-193.10083749 240.0030517 -193.10083749 240.0030517 -191.0625 237.375 C-190.258125 236.37082031 -189.45375 235.36664063 -188.625 234.33203125 C-185.45642807 230.32001792 -182.30563836 226.29393534 -179.15844727 222.26513672 C-176.17111378 218.45269061 -173.11614109 214.70875112 -170 211 C-166.48019622 206.80949345 -163.05356838 202.56364382 -159.6875 198.25 C-154.10585634 191.09907633 -148.39225006 184.06040862 -142.65722656 177.03222656 C-141.01678063 175.02057778 -139.37892187 173.00685693 -137.7421875 170.9921875 C-137.2061792 170.3324292 -136.6701709 169.6726709 -136.11791992 168.99291992 C-135.04450133 167.67070535 -133.97174069 166.34795635 -132.8996582 165.0246582 C-130.07298501 161.53824181 -127.2304249 158.06652187 -124.36328125 154.61328125 C-123.76902344 153.89333984 -123.17476562 153.17339844 -122.5625 152.43164062 C-121.42567446 151.05501595 -120.28400532 149.68237173 -119.13671875 148.31445312 C-116.417905 145.01157261 -114.29434644 142.15302568 -113 138 C-114.32 136.68 -115.64 135.36 -117 134 C-115.95125002 131.37812506 -115.35068687 130.20628639 -112.875 128.75 C-112.25625 128.5025 -111.6375 128.255 -111 128 C-110.21625 128.825 -109.4325 129.65 -108.625 130.5 C-104.98554639 133.5822167 -101.78774874 133.45527495 -97.171875 133.2734375 C-94.95656079 133.11660753 -94.95656079 133.11660753 -93 132 C-93 130.02 -93 128.04 -93 126 C-96.13348292 124.58487868 -99.14474143 123.72907057 -102.5 123.0625 C-107.07161134 122.082869 -110.42574657 120.76623556 -113.6015625 117.203125 C-116.04175385 113.3588012 -115.74071766 109.38892519 -115 105 C-113.3287757 101.63004153 -110.96348862 99.5887986 -107.75 97.625 C-99.80622293 95.81959612 -94.11895288 97.2703765 -87 101 C-85.66712739 101.66758732 -84.33393231 102.33453264 -83 103 C-80.525 100.03 -80.525 100.03 -78 97 C-79.15173355 94.53199953 -80.04783565 92.95216435 -82 91 C-82.56881408 86.04319159 -82.78681343 84.07905842 -79.8125 80 C-77 78 -77 78 -74.4375 77.4375 C-71.30054588 78.16141249 -70.04549532 79.57570925 -68 82 C-63.78170046 80.46075906 -61.6585844 77.34371781 -59.0625 73.875 C-58.08334861 72.5979472 -57.10282486 71.32194571 -56.12109375 70.046875 C-55.61046387 69.38107422 -55.09983398 68.71527344 -54.57373047 68.02929688 C-51.97889815 64.68330769 -49.30302813 61.4045147 -46.625 58.125 C-46.08536621 57.46274414 -45.54573242 56.80048828 -44.98974609 56.11816406 C-43.88662846 54.7646495 -42.78311045 53.41146114 -41.67919922 52.05859375 C-32.20117173 40.43912185 -22.75792963 28.79598789 -13.5 17 C-12.10868137 15.22861853 -10.71711811 13.4574302 -9.32519531 11.68652344 C-8.06752759 10.08593969 -6.81107299 8.48440294 -5.5546875 6.8828125 C-4.83539063 5.97273438 -4.11609375 5.06265625 -3.375 4.125 C-2.74335938 3.32320313 -2.11171875 2.52140625 -1.4609375 1.6953125 C-0.97882813 1.13585937 -0.49671875 0.57640625 0 0 Z " fill="#99D4B3" transform="translate(398,67)"/>
<path d="M0 0 C132 0 264 0 400 0 C400 132 400 264 400 400 C268 400 136 400 0 400 C0 268 0 136 0 0 Z M1 1 C1 112.21 1 223.42 1 338 C8.02775636 330.97224364 14.63923807 323.59446184 21.15625 316.09375 C23.40876457 313.53580973 25.70317092 311.0182102 28 308.5 C31.44530283 304.72211892 34.84950607 300.91686859 38.1953125 297.05078125 C39.58761861 295.46861521 41.00380046 293.90743905 42.4296875 292.35546875 C43.25726563 291.45441406 44.08484375 290.55335938 44.9375 289.625 C45.70964844 288.79226563 46.48179688 287.95953125 47.27734375 287.1015625 C49.21131402 285.19510178 49.21131402 285.19510178 49 283 C49.66 283 50.32 283 51 283 C52.30863371 281.52931586 53.5446856 279.99398682 54.75 278.4375 C58.63075129 273.57404234 62.71878277 269.01328643 67 264.5 C71.93778335 259.28544246 76.56677976 253.96668688 81.05078125 248.35546875 C83.32698362 245.60486749 85.78038639 243.13210227 88.33984375 240.6484375 C92.38937177 236.62749438 95.99623611 232.18268348 99.6875 227.8359375 C105.29745554 221.24156722 110.99098047 214.75981431 116.89868164 208.42993164 C119.54519221 205.59144621 122.13043592 202.72289069 124.625 199.75 C127 197 127 197 129 196 C129.20496094 196.78246094 129.40992188 197.56492188 129.62109375 198.37109375 C130.02521484 199.88896484 130.02521484 199.88896484 130.4375 201.4375 C130.70433594 202.44683594 130.97117188 203.45617187 131.24609375 204.49609375 C131.75978077 206.91752001 131.75978077 206.91752001 133 208 C134.51928038 208.07179964 136.04167482 208.08392007 137.5625 208.0625 C138.38878906 208.05347656 139.21507812 208.04445312 140.06640625 208.03515625 C140.70449219 208.02355469 141.34257812 208.01195312 142 208 C142.28875 207.195625 142.5775 206.39125 142.875 205.5625 C144 203 144 203 146 202 C146.33 202.99 146.66 203.98 147 205 C148.42706622 206.44419539 148.42706622 206.44419539 150.2578125 207.87890625 C154.09308334 211.13144183 157.65038427 214.57678169 161.1796875 218.15234375 C161.99424408 218.97540512 161.99424408 218.97540512 162.82525635 219.81509399 C165.09016901 222.10708344 167.35081845 224.40319826 169.60742188 226.70336914 C171.2730413 228.39900186 172.94467587 230.08851301 174.6171875 231.77734375 C175.12861298 232.30222885 175.64003845 232.82711395 176.16696167 233.36790466 C177.40717829 234.61695159 178.69933895 235.81402517 180 237 C180.66 237 181.32 237 182 237 C182.33 237.99 182.66 238.98 183 240 C184.65790592 241.68050243 184.65790592 241.68050243 186.6875 243.3125 C189.39738001 245.58608448 191.86826888 247.88679629 194.25 250.5 C196.61330259 253.21794726 196.61330259 253.21794726 198.88671875 252.98046875 C201.96269889 251.55335042 203.44717394 249.45055902 205.5625 246.8125 C206.20832031 246.01489258 206.20832031 246.01489258 206.8671875 245.20117188 C208.25706426 243.4768435 209.63061146 241.74063433 211 240 C211.45358887 239.42427246 211.90717773 238.84854492 212.37451172 238.25537109 C214.21301493 235.91813543 216.0486383 233.57872218 217.87744141 231.23388672 C221.75282454 226.27521096 225.75563913 221.4352293 229.80859375 216.62109375 C232.03767691 214.03815605 232.03767691 214.03815605 233.91015625 211.22265625 C236.53766649 208.42816405 238.28412175 208.4676069 242 208 C243.1470947 204.08370163 244.29245697 200.16689868 245.4375 196.25 C245.76298828 195.13882813 246.08847656 194.02765625 246.42382812 192.8828125 C246.89272461 191.27792969 246.89272461 191.27792969 247.37109375 189.640625 C247.8031311 188.16384277 247.8031311 188.16384277 248.24389648 186.65722656 C248.87311738 184.44591232 249.45993447 182.23443421 250 180 C252.41627369 186.64475265 254.0923151 193.34654212 255.64160156 200.23413086 C256.50353473 204.22341907 256.50353473 204.22341907 258 208 C260.97 208 263.94 208 267 208 C268.10352496 203.87424301 269.20619311 199.74825821 270.30810547 195.62207031 C270.68222526 194.22161845 271.05656951 192.82122652 271.43115234 191.42089844 C275.61645146 178.37826368 275.61645146 178.37826368 277 165 C275.35 164.67 273.7 164.34 272 164 C272.66644531 163.22398437 273.33289063 162.44796875 274.01953125 161.6484375 C279.40153204 155.3516742 284.64538011 148.97479326 289.73608398 142.44042969 C294.84355681 135.89381485 300.09342496 129.46522143 305.34277344 123.03222656 C308.06661818 119.69202568 310.7829664 116.34574159 313.5 113 C314.58329656 111.66663679 315.66662991 110.33330347 316.75 109 C317.28625 108.34 317.8225 107.68 318.375 107 C323.25 101 323.25 101 324.8762207 98.99853516 C325.95553408 97.67012449 327.0347987 96.34167421 328.11401367 95.01318359 C330.88344623 91.60420077 333.65381835 88.19598824 336.42578125 84.7890625 C341.58835437 78.44241297 346.74092979 72.08940657 351.83984375 65.69140625 C354.7289858 62.09173379 357.64718456 58.51598404 360.5625 54.9375 C363.9144652 50.821317 367.26202137 46.70694979 370.5 42.5 C373.65750833 38.39913733 376.92003411 34.38824374 380.1875 30.375 C380.74010498 29.69260254 381.29270996 29.01020508 381.86206055 28.30712891 C384.71189334 24.79097866 387.58430044 21.29895844 390.5078125 17.84375 C391.60938429 16.52084107 392.71094714 15.19792469 393.8125 13.875 C394.33416748 13.27220215 394.85583496 12.6694043 395.39331055 12.04833984 C398.87973993 7.82297438 399 6.88910067 399 1 C267.66 1 136.32 1 1 1 Z M398 67 C396.67339781 68.51170947 395.39073601 70.06197369 394.125 71.625 C392.89716797 73.1409375 392.89716797 73.1409375 391.64453125 74.6875 C388.54419526 78.55631497 385.49756023 82.46679774 382.4465332 86.37451172 C378.0528289 91.97862585 373.5251785 97.46842867 368.98828125 102.95678711 C363.29089087 109.84978052 357.70278137 116.82120879 352.19189453 123.86401367 C349.80192169 126.91514184 347.40328793 129.95935107 345 133 C344.42926758 133.72251953 343.85853516 134.44503906 343.27050781 135.18945312 C341.49988691 137.42369333 339.72002679 139.6502518 337.9375 141.875 C337.09699097 142.93775146 337.09699097 142.93775146 336.23950195 144.02197266 C335.71573975 144.67214355 335.19197754 145.32231445 334.65234375 145.9921875 C333.95612915 146.86399658 333.95612915 146.86399658 333.24584961 147.75341797 C332.83471924 148.16479004 332.42358887 148.57616211 332 149 C331.34 149 330.68 149 330 149 C329.443125 148.319375 328.88625 147.63875 328.3125 146.9375 C326.04769173 144.61868196 326.04769173 144.61868196 322.4375 145 C319.06612605 145.74131794 319.06612605 145.74131794 317.0625 147.5625 C315.5343629 151.06822628 315.26789916 154.2393136 316 158 C317.83341465 160.50520579 317.83341465 160.50520579 320 162 C318.62845496 164.95409701 317.01136276 167.44008376 315 170 C312.97745069 168.99099787 310.95923679 167.97864413 308.95703125 166.9296875 C303.55129239 164.2711274 299.01788388 163.06893117 293 164 C288.34831656 165.66758463 285.40921236 167.64488535 283 172 C282.2603839 176.1335554 282.04212406 180.08032239 283.953125 183.91015625 C288.41104223 189.65184078 294.05632039 190.31306562 300.79296875 191.53515625 C303 192 303 192 305 193 C305 194.98 305 196.96 305 199 C301.27977771 200.86011115 297.04969762 200.58206663 293 200 C290.47952267 198.58655585 289.01817133 197.12439088 287 195 C284.37812506 196.04874998 283.20628639 196.64931313 281.75 199.125 C281.5025 199.74375 281.255 200.3625 281 201 C282.32 202.32 283.64 203.64 285 205 C283.55834005 209.43900946 281.11232548 212.50321167 278.0625 215.9375 C274.05748731 220.55264875 270.18384405 225.23487501 266.4375 230.0625 C263.03196623 234.44121548 259.57025731 238.75291665 256 243 C252.00155493 247.7603535 248.13911022 252.60690998 244.31640625 257.5078125 C240.22642185 262.74025064 236.0400043 267.89032395 231.83886719 273.03369141 C228.31579025 277.35556913 224.85835725 281.72196559 221.4375 286.125 C217.06094424 291.75454088 212.48562506 297.18909599 207.79467773 302.55908203 C205.11166339 305.57972815 205.11166339 305.57972815 203 309 C199.43474072 307.49111508 197.20707802 305.41376144 194.5234375 302.6484375 C193.688125 301.79765625 192.8528125 300.946875 191.9921875 300.0703125 C191.12851563 299.18085938 190.26484375 298.29140625 189.375 297.375 C187.65826847 295.60747759 185.93714292 293.84420866 184.2109375 292.0859375 C183.07084229 290.9110376 183.07084229 290.9110376 181.90771484 289.71240234 C180.17919728 287.77733817 180.17919728 287.77733817 178 288 C177.67 287.01 177.34 286.02 177 285 C175.49335024 283.47266344 175.49335024 283.47266344 173.59375 281.96875 C167.27889185 276.61068854 161.58706662 270.63135739 155.77734375 264.73828125 C151.19507521 260.11599289 146.58266073 255.61996787 141.625 251.40014648 C139.64795753 249.69667014 137.80682753 247.88211201 136 246 C135.01 246.33 134.02 246.66 133 247 C133 297.16 133 347.32 133 399 C220.78 399 308.56 399 399 399 C399 289.44 399 179.88 399 67 C398.67 67 398.34 67 398 67 Z " fill="#FDFDFD" transform="translate(0,0)"/>
<path d="M0 0 C44.22 0 88.44 0 134 0 C134 6.74849579 134 6.74849579 131.21875 9.953125 C130.62827881 10.64929932 130.03780762 11.34547363 129.42944336 12.06274414 C128.79272705 12.78453857 128.15601074 13.50633301 127.5 14.25 C126.19879139 15.77437489 124.89800699 17.299112 123.59765625 18.82421875 C122.65623779 19.91355713 122.65623779 19.91355713 121.69580078 21.02490234 C119.71907164 23.32719702 117.81665731 25.68006946 115.9375 28.0625 C112.55480542 32.31978014 109.12344933 36.53572525 105.6875 40.75 C101.59422687 45.77350909 97.54623481 50.82673899 93.5625 55.9375 C88.80761162 62.03360088 83.90970035 68.00475987 78.98291016 73.96240234 C75.31627232 78.39692245 71.68904884 82.85809345 68.109375 87.36328125 C65.32474335 90.84407081 62.50426888 94.29520324 59.6875 97.75 C55.50976202 102.87667616 51.38038952 108.03576481 47.3125 113.25 C43.1540989 118.57932914 38.86428737 123.78102903 34.515625 128.95703125 C31.86919921 132.1582202 29.30172476 135.41087975 26.75 138.6875 C20.33214939 146.92715433 13.66897149 154.96322231 7 163 C8.65 163.33 10.3 163.66 12 164 C11.39022516 172.55590321 9.19023028 180.62068868 7 188.875 C6.62705013 190.30193864 6.25465006 191.7290211 5.8828125 193.15625 C3.21434777 203.35695668 3.21434777 203.35695668 2 207 C-0.97 207 -3.94 207 -7 207 C-7.60544227 204.75033633 -8.20960267 202.50034616 -8.8125 200.25 C-9.08380737 199.23848877 -9.08380737 199.23848877 -9.3605957 198.20654297 C-10.78017433 192.88766301 -12.10870262 187.5501287 -13.38671875 182.1953125 C-13.79479163 180.04161539 -13.79479163 180.04161539 -15 179 C-15.20681396 179.77714355 -15.41362793 180.55428711 -15.62670898 181.35498047 C-16.5614044 184.86225373 -17.49940926 188.36863343 -18.4375 191.875 C-18.76298828 193.09832031 -19.08847656 194.32164062 -19.42382812 195.58203125 C-19.89272461 197.33193359 -19.89272461 197.33193359 -20.37109375 199.1171875 C-20.65911865 200.19597168 -20.94714355 201.27475586 -21.24389648 202.38623047 C-22 205 -22 205 -23 207 C-24.485 207.2165625 -24.485 207.2165625 -26 207.4375 C-31.59344005 208.94342617 -34.3261534 213.83686268 -37.66210938 218.25634766 C-40.15454039 221.50469479 -42.77853771 224.64721625 -45.375 227.8125 C-50.17739424 233.70772643 -54.90895888 239.65470112 -59.57373047 245.65942383 C-61.30464952 247.88126449 -63.00608468 250.00608468 -65 252 C-68.7176584 251.9264639 -70.63603435 249.65362751 -73.11523438 247.09960938 C-73.59283203 246.59236328 -74.07042969 246.08511719 -74.5625 245.5625 C-77.24884055 242.75388959 -79.74258279 240.17161147 -83 238 C-83 237.34 -83 236.68 -83 236 C-83.54946289 235.77723389 -84.09892578 235.55446777 -84.66503906 235.32495117 C-87.70445373 233.60026449 -89.94449385 231.28348674 -92.359375 228.80078125 C-92.8674469 228.28750778 -93.3755188 227.77423431 -93.89898682 227.2454071 C-95.52083649 225.60580301 -97.1358566 223.95968847 -98.75 222.3125 C-100.86632759 220.15931934 -102.98623653 218.0097459 -105.109375 215.86328125 C-105.61803101 215.34758575 -106.12668701 214.83189026 -106.65075684 214.30056763 C-110.16951307 210.75974239 -113.81313736 207.44777668 -117.68066406 204.29370117 C-118.11604492 203.86677979 -118.55142578 203.4398584 -119 203 C-119 202.34 -119 201.68 -119 201 C-121.7839183 202.39195915 -121.97898997 204.15575779 -123 207 C-125.97 207 -128.94 207 -132 207 C-134.71889204 200.38361466 -137.19346236 193.72760551 -139.453125 186.94140625 C-139.75820984 186.03043686 -140.06329468 185.11946747 -140.37762451 184.18089294 C-141.01433439 182.27645662 -141.64951322 180.37150778 -142.28320312 178.46606445 C-143.2562061 175.54386134 -144.23724048 172.6244335 -145.21875 169.70507812 C-145.83902731 167.84651618 -146.45883608 165.98779777 -147.078125 164.12890625 C-147.37180969 163.25706192 -147.66549438 162.38521759 -147.96807861 161.48695374 C-148.23545837 160.67858566 -148.50283813 159.87021759 -148.77832031 159.03735352 C-149.01496399 158.32805191 -149.25160767 157.61875031 -149.49542236 156.88795471 C-150 155 -150 155 -150 152 C-147.03 152 -144.06 152 -141 152 C-140.22577397 154.12376625 -139.45581937 156.24908976 -138.6875 158.375 C-138.25824219 159.55835938 -137.82898438 160.74171875 -137.38671875 161.9609375 C-135.79466677 166.59806918 -134.40881425 171.3039525 -133 176 C-132.67 138.71 -132.34 101.42 -132 63 C-88.77 63 -45.54 63 -1 63 C-0.9175 81.046875 -0.835 99.09375 -0.75 117.6875 C-0.71358398 123.38475342 -0.67716797 129.08200684 -0.63964844 134.9519043 C-0.62158203 141.91174316 -0.62158203 141.91174316 -0.6182251 145.17048645 C-0.61208483 147.44529855 -0.59802069 149.72009767 -0.57769775 151.99482727 C-0.54844356 155.44168702 -0.54437506 158.88775161 -0.54589844 162.3347168 C-0.531506 163.34724612 -0.51711357 164.35977545 -0.502285 165.40298748 C-0.53534212 170.98554852 -0.88419973 173.87359852 -5 178 C-5.30701804 180.50740227 -5.30701804 180.50740227 -4.8125 183 C-4.63654297 184.2375 -4.63654297 184.2375 -4.45703125 185.5 C-3.99887729 188.0061413 -3.51248548 190.50441851 -3 193 C-2.32492934 189.93929066 -1.66145078 186.8761791 -1 183.8125 C-0.80921875 182.94818359 -0.6184375 182.08386719 -0.421875 181.19335938 C-0.24140625 180.35224609 -0.0609375 179.51113281 0.125 178.64453125 C0.37636719 177.48981323 0.37636719 177.48981323 0.6328125 176.31176758 C1.02792697 173.82417522 1.12969002 171.51463537 1 169 C0.67 168.67 0.34 168.34 0 168 C-0.09695318 165.83573826 -0.12186765 163.66824747 -0.12025452 161.5018158 C-0.12153615 160.47147896 -0.12153615 160.47147896 -0.12284368 159.42032725 C-0.12450045 157.10172545 -0.11897393 154.78319483 -0.11352539 152.46459961 C-0.11324354 150.80930076 -0.11340122 149.15400178 -0.1139679 147.498703 C-0.11425594 142.99063067 -0.10835819 138.48258471 -0.10139394 133.97451854 C-0.09516145 129.26862263 -0.09455668 124.56272618 -0.09336853 119.85682678 C-0.0902549 110.93911366 -0.08204109 102.02141273 -0.07201904 93.10370499 C-0.05877392 81.05774094 -0.05335825 69.01177359 -0.04751682 56.9658041 C-0.03810122 37.97719359 -0.01818252 18.98860882 0 0 Z " fill="#99CCCD" transform="translate(265,1)"/>
<path d="M0 0 C0.33 0 0.66 0 1 0 C1 109.56 1 219.12 1 332 C-86.78 332 -174.56 332 -265 332 C-265 281.84 -265 231.68 -265 180 C-261 180 -261 180 -258.921875 181.72265625 C-258.20515625 182.49480469 -257.4884375 183.26695312 -256.75 184.0625 C-254.07335721 186.91986502 -251.35206238 189.59113995 -248.37890625 192.1328125 C-242.52911578 197.19062923 -237.1846526 202.75796219 -231.7590332 208.26147461 C-230.37654966 209.6620081 -228.99105139 211.0595637 -227.60546875 212.45703125 C-226.79231201 213.28178955 -225.97915527 214.10654785 -225.14135742 214.95629883 C-222.97577525 217.14122979 -222.97577525 217.14122979 -220 219 C-220 219.66 -220 220.32 -220 221 C-219.4323291 221.24024902 -218.8646582 221.48049805 -218.27978516 221.72802734 C-215.53439923 223.25977511 -213.71271722 225.0956465 -211.5234375 227.3515625 C-210.688125 228.20234375 -209.8528125 229.053125 -208.9921875 229.9296875 C-208.12851563 230.81914062 -207.26484375 231.70859375 -206.375 232.625 C-204.65826847 234.39252241 -202.93714292 236.15579134 -201.2109375 237.9140625 C-200.45087402 238.6973291 -199.69081055 239.4805957 -198.90771484 240.28759766 C-197.17919728 242.22266183 -197.17919728 242.22266183 -195 242 C-193.10083749 240.0030517 -193.10083749 240.0030517 -191.0625 237.375 C-190.258125 236.37082031 -189.45375 235.36664063 -188.625 234.33203125 C-185.45642807 230.32001792 -182.30563836 226.29393534 -179.15844727 222.26513672 C-176.17111378 218.45269061 -173.11614109 214.70875112 -170 211 C-166.00390877 206.24244887 -162.14390538 201.39862912 -158.32299805 196.50097656 C-154.16641972 191.18416881 -149.91951815 185.94389432 -145.65209961 180.71582031 C-141.84953621 176.05605819 -138.09827464 171.36082138 -134.390625 166.625 C-133.93171875 166.08875 -133.4728125 165.5525 -133 165 C-132.67 165 -132.34 165 -132 165 C-132 219.78 -132 274.56 -132 331 C-88.44 331 -44.88 331 0 331 C-0.03552979 321.00855713 -0.07105957 311.01711426 -0.10766602 300.72290039 C-0.22050762 268.79225305 -0.32843369 236.8615908 -0.4332476 204.93091613 C-0.44951954 199.9751842 -0.46583515 195.01945241 -0.48217773 190.0637207 C-0.48543066 189.07708014 -0.48868358 188.09043957 -0.49203508 187.07390081 C-0.5448827 171.07637955 -0.60127165 155.07887262 -0.6589582 139.08136816 C-0.7180254 122.67924478 -0.77331279 106.27711184 -0.82505554 89.8749637 C-0.85713069 79.7454352 -0.89219111 69.61592591 -0.93101191 59.48642098 C-0.95731316 52.55011329 -0.97995915 45.61379981 -0.99967117 38.67747027 C-1.01117152 34.66932927 -1.02434039 30.66121115 -1.04183006 26.65309143 C-1.05777959 22.98982202 -1.06918034 19.32656879 -1.07683109 15.66327291 C-1.08215723 13.697573 -1.09246867 11.73188859 -1.10290819 9.76620919 C-1.10440054 8.6146976 -1.10589289 7.46318601 -1.10743046 6.27678013 C-1.11084794 5.27469818 -1.11426542 4.27261623 -1.11778647 3.24016815 C-1 1 -1 1 0 0 Z " fill="#9ACDCE" transform="translate(398,67)"/>
<path d="M0 0 C42.57 0 85.14 0 129 0 C129 14.52 129 29.04 129 44 C126.43397243 41.43397243 125.97857301 39.21760439 124.9375 35.75 C124.42509766 34.07164062 124.42509766 34.07164062 123.90234375 32.359375 C123.06558861 29.24418272 122.46868451 26.1889874 122 23 C119.03 23 116.06 23 113 23 C117.62 36.86 122.24 50.72 127 65 C125.35 66.65 123.7 68.3 122 70 C116.67215753 75.63459703 111.47672041 81.32377676 106.625 87.375 C102.01826989 93.10027069 97.03187133 98.42180063 92.0078125 103.77734375 C89.1577443 106.81794331 86.39511189 109.92348424 83.671875 113.078125 C81.64241927 115.41105074 79.572353 117.70511245 77.5 120 C74.25592614 123.59419313 71.05455616 127.22042378 67.87890625 130.875 C65.62093174 133.42871753 63.30906831 135.9299145 61 138.4375 C57.1919955 142.5937976 53.69355656 146.86293078 50.375 151.41796875 C49.92125 151.94003906 49.4675 152.46210938 49 153 C48.34 153 47.68 153 47 153 C46.79503906 153.52464844 46.59007812 154.04929687 46.37890625 154.58984375 C44.39493114 158.05758494 41.69503214 160.6927268 38.9375 163.5625 C34.84785598 167.88169652 30.9037935 172.22963313 27.1875 176.875 C24.02092326 180.83177895 20.67969617 184.37718597 17.0390625 187.89453125 C13.85655969 191.18067879 11.08169405 194.77983162 8.2734375 198.38671875 C6 201 6 201 0 206 C0 138.02 0 70.04 0 0 Z " fill="#CADFDA" transform="translate(2,130)"/>
<path d="M0 0 C44.22 0 88.44 0 134 0 C134 6.74849579 134 6.74849579 131.21875 9.953125 C130.62827881 10.64929932 130.03780762 11.34547363 129.42944336 12.06274414 C128.79272705 12.78453857 128.15601074 13.50633301 127.5 14.25 C126.19879139 15.77437489 124.89800699 17.299112 123.59765625 18.82421875 C122.97004395 19.55044434 122.34243164 20.27666992 121.69580078 21.02490234 C119.71907164 23.32719702 117.81665731 25.68006946 115.9375 28.0625 C112.55480542 32.31978014 109.12344933 36.53572525 105.6875 40.75 C101.59422687 45.77350909 97.54623481 50.82673899 93.5625 55.9375 C88.80761162 62.03360088 83.90970035 68.00475987 78.98291016 73.96240234 C75.31627232 78.39692245 71.68904884 82.85809345 68.109375 87.36328125 C65.32474335 90.84407081 62.50426888 94.29520324 59.6875 97.75 C55.50976202 102.87667616 51.38038952 108.03576481 47.3125 113.25 C43.1540989 118.57932914 38.86428737 123.78102903 34.515625 128.95703125 C31.86917701 132.15824706 29.30237652 135.41136359 26.75 138.6875 C22.38502045 144.27122112 17.96965193 149.81214587 13.5 155.3125 C12.90026367 156.06039795 12.30052734 156.8082959 11.68261719 157.57885742 C10.83425293 158.61683472 10.83425293 158.61683472 9.96875 159.67578125 C9.46794922 160.29364502 8.96714844 160.91150879 8.45117188 161.5480957 C7 163 7 163 4 164 C3.67 165.98 3.34 167.96 3 170 C2.01 169.34 1.02 168.68 0 168 C-0.36914349 165.13018608 -0.36914349 165.13018608 -0.36076355 161.38156128 C-0.36332682 160.69381563 -0.3658901 160.00606999 -0.36853105 159.29748356 C-0.3734916 156.9817789 -0.35693946 154.66671929 -0.34057617 152.35107422 C-0.33973039 150.69562801 -0.34020409 149.04018066 -0.34190369 147.38473511 C-0.34276696 142.88076709 -0.32508761 138.37703713 -0.30418181 133.8731246 C-0.28547024 129.16991465 -0.28366894 124.46669968 -0.28010559 119.76345825 C-0.27076885 110.85281466 -0.2461331 101.94228104 -0.21605712 93.03168595 C-0.17630505 80.99391272 -0.16007139 68.95610956 -0.14255047 56.91828728 C-0.11431312 37.94544242 -0.05455446 18.97282968 0 0 Z " fill="#9AD4B4" transform="translate(265,1)"/>
<path d="M0 0 C0.33 0 0.66 0 1 0 C1 48.84 1 97.68 1 148 C-41.57 148 -84.14 148 -128 148 C-126.92712749 142.63563745 -126.02057617 141.49277663 -122.375 137.6875 C-121.45381077 136.71151885 -120.53323983 135.73495375 -119.61328125 134.7578125 C-118.75089844 133.84773437 -117.88851562 132.93765625 -117 132 C-115.84538868 130.69521535 -114.69841736 129.38359123 -113.5625 128.0625 C-110.6011649 124.6531142 -107.55847514 121.3220569 -104.5 118 C-100.85518185 114.04064504 -97.25739767 110.04872112 -93.734375 105.98046875 C-91.72735462 103.68866845 -89.67597149 101.44003248 -87.625 99.1875 C-84.42347567 95.64839998 -81.36853937 92.02896894 -78.375 88.3125 C-75.31171313 84.52593707 -72.148149 81.0332605 -68.65625 77.64453125 C-65.58540775 74.59541666 -62.81734681 71.28174463 -60 68 C-52.92048137 59.76938029 -45.78941883 51.61112674 -38.421875 43.63671875 C-35.81253536 40.79590543 -33.26915945 37.90606424 -30.7421875 34.9921875 C-27.92536738 31.77116001 -25.04689854 28.60582364 -22.1796875 25.4296875 C-20.30854906 23.3439382 -18.46075169 21.24182372 -16.625 19.125 C-13.07939401 15.04546746 -9.41432089 11.07855173 -5.73095703 7.12353516 C-3.60416279 4.82460421 -1.74240597 2.61360896 0 0 Z " fill="#CBE0DB" transform="translate(130,250)"/>
<path d="M0 0 C2.97 0 5.94 0 9 0 C9.26478149 1.16571533 9.26478149 1.16571533 9.53491211 2.35498047 C10.33311968 5.8622641 11.13525881 9.36863691 11.9375 12.875 C12.21529297 14.09832031 12.49308594 15.32164062 12.77929688 16.58203125 C13.04677734 17.74863281 13.31425781 18.91523438 13.58984375 20.1171875 C13.83597412 21.19597168 14.08210449 22.27475586 14.33569336 23.38623047 C14.89078737 25.95916947 14.89078737 25.95916947 16 28 C16.38091797 26.35064453 16.38091797 26.35064453 16.76953125 24.66796875 C18.69055028 16.39878695 20.67179682 8.16634904 23 0 C25.64 0 28.28 0 31 0 C34.44545951 9.51166749 36.80466015 19.14432536 39 29 C39.26478149 27.78884521 39.26478149 27.78884521 39.53491211 26.55322266 C40.33302658 22.90987338 41.13521028 19.26743203 41.9375 15.625 C42.21529297 14.35398438 42.49308594 13.08296875 42.77929688 11.7734375 C43.18051758 9.95585937 43.18051758 9.95585937 43.58984375 8.1015625 C43.83597412 6.98088379 44.08210449 5.86020508 44.33569336 4.70556641 C45 2 45 2 46 0 C48.64 0 51.28 0 54 0 C53.39022516 8.55590321 51.19023028 16.62068868 49 24.875 C48.62705013 26.30193864 48.25465006 27.7290211 47.8828125 29.15625 C45.21434777 39.35695668 45.21434777 39.35695668 44 43 C41.03 43 38.06 43 35 43 C34.39455773 40.75033633 33.79039733 38.50034616 33.1875 36.25 C33.00662842 35.57565918 32.82575684 34.90131836 32.6394043 34.20654297 C31.21982567 28.88766301 29.89129738 23.5501287 28.61328125 18.1953125 C28.20520837 16.04161539 28.20520837 16.04161539 27 15 C26.79318604 15.77714355 26.58637207 16.55428711 26.37329102 17.35498047 C25.4385956 20.86225373 24.50059074 24.36863343 23.5625 27.875 C23.23701172 29.09832031 22.91152344 30.32164062 22.57617188 31.58203125 C22.26357422 32.74863281 21.95097656 33.91523438 21.62890625 35.1171875 C21.34088135 36.19597168 21.05285645 37.27475586 20.75610352 38.38623047 C20 41 20 41 19 43 C16.03 43 13.06 43 10 43 C8.57133824 37.35944581 7.14729428 31.71775378 5.72753906 26.07495117 C5.24378546 24.15503376 4.75876591 22.23543486 4.27246094 20.31616211 C3.57414949 17.55925701 2.88038126 14.80124289 2.1875 12.04296875 C1.96876221 11.18350143 1.75002441 10.32403412 1.5246582 9.43852234 C1.32445068 8.63791885 1.12424316 7.83731537 0.91796875 7.01245117 C0.74031982 6.3085173 0.5626709 5.60458344 0.37963867 4.87931824 C0 3 0 3 0 0 Z " fill="#060606" transform="translate(223,165)"/>
<path d="M0 0 C11.55 0 23.1 0 35 0 C35 2.97 35 5.94 35 9 C26.09 9 17.18 9 8 9 C8 13.29 8 17.58 8 22 C15.59 22 23.18 22 31 22 C31 24.97 31 27.94 31 31 C23.41 31 15.82 31 8 31 C8 35.95 8 40.9 8 46 C17.24 46 26.48 46 36 46 C36 48.97 36 51.94 36 55 C24.12 55 12.24 55 0 55 C0 36.85 0 18.7 0 0 Z " fill="#070808" transform="translate(76,153)"/>
<path d="M0 0 C4.89940754 3.37514742 9.43357898 8.00813963 10.8125 13.9375 C10.8125 17.2375 10.8125 20.5375 10.8125 23.9375 C1.2425 23.9375 -8.3275 23.9375 -18.1875 23.9375 C-15.3529633 32.8845244 -15.3529633 32.8845244 -10.1875 34.9375 C-4.36078713 35.5689389 -4.36078713 35.5689389 0.625 32.9375 C1.346875 32.2775 2.06875 31.6175 2.8125 30.9375 C3.8025 30.9375 4.7925 30.9375 5.8125 30.9375 C8 33.9375 8 33.9375 9.8125 36.9375 C8.56877811 37.92462878 7.31722782 38.90189905 6.0625 39.875 C5.36640625 40.42027344 4.6703125 40.96554688 3.953125 41.52734375 C-1.08324828 44.8451006 -7.36351587 44.64636667 -13.1875 43.9375 C-18.83910073 41.76308645 -22.34056475 38.28973828 -25.1875 32.9375 C-27.37748318 26.45693753 -27.48278263 16.72843494 -25.28125 10.28515625 C-19.60858744 0.81253704 -10.72054509 -3.57351503 0 0 Z " fill="#050606" transform="translate(208.1875,165.0625)"/>
<path d="M0 0 C0.33 0 0.66 0 1 0 C1 109.56 1 219.12 1 332 C-86.78 332 -174.56 332 -265 332 C-265 331.67 -265 331.34 -265 331 C-221.77 331 -178.54 331 -134 331 C-134.33 278.2 -134.66 225.4 -135 171 C-136.32 171.99 -137.64 172.98 -139 174 C-137.3001734 169.82769834 -135.55512687 168.55512687 -132 165 C-132 219.78 -132 274.56 -132 331 C-88.44 331 -44.88 331 0 331 C-0.03552979 321.00855713 -0.07105957 311.01711426 -0.10766602 300.72290039 C-0.22050762 268.79225305 -0.32843369 236.8615908 -0.4332476 204.93091613 C-0.44951954 199.9751842 -0.46583515 195.01945241 -0.48217773 190.0637207 C-0.48543066 189.07708014 -0.48868358 188.09043957 -0.49203508 187.07390081 C-0.5448827 171.07637955 -0.60127165 155.07887262 -0.6589582 139.08136816 C-0.7180254 122.67924478 -0.77331279 106.27711184 -0.82505554 89.8749637 C-0.85713069 79.7454352 -0.89219111 69.61592591 -0.93101191 59.48642098 C-0.95731316 52.55011329 -0.97995915 45.61379981 -0.99967117 38.67747027 C-1.01117152 34.66932927 -1.02434039 30.66121115 -1.04183006 26.65309143 C-1.05777959 22.98982202 -1.06918034 19.32656879 -1.07683109 15.66327291 C-1.08215723 13.697573 -1.09246867 11.73188859 -1.10290819 9.76620919 C-1.10440054 8.6146976 -1.10589289 7.46318601 -1.10743046 6.27678013 C-1.11084794 5.27469818 -1.11426542 4.27261623 -1.11778647 3.24016815 C-1 1 -1 1 0 0 Z " fill="#CDE7DC" transform="translate(398,67)"/>
<path d="M0 0 C2.97 0 5.94 0 9 0 C12.01301633 8.12526534 14.70379824 16.22258221 17.01953125 24.578125 C18.50897334 29.77633724 20.23987179 34.88813829 22 40 C25.78169924 32.29653858 28.05289434 24.35758122 30.38867188 16.13476562 C31.31120467 12.91326931 32.2754346 9.70617892 33.25 6.5 C33.72179687 4.93765625 33.72179687 4.93765625 34.203125 3.34375 C35 1 35 1 36 0 C39.00003445 -0.14177857 41.99757235 -0.04228771 45 0 C42.65318239 9.2071419 39.74996397 18.22261073 36.81152344 27.25341797 C35.9975944 29.75740063 35.18999066 32.26336537 34.3828125 34.76953125 C33.85975399 36.38293541 33.33632925 37.99622091 32.8125 39.609375 C32.57490967 40.34806824 32.33731934 41.08676147 32.0925293 41.84783936 C30.62054448 46.35144872 28.92667729 50.67065952 27 55 C24.03 55 21.06 55 18 55 C15.28110796 48.38361466 12.80653764 41.72760551 10.546875 34.94140625 C10.24179016 34.03043686 9.93670532 33.11946747 9.62237549 32.18089294 C8.98566561 30.27645662 8.35048678 28.37150778 7.71679688 26.46606445 C6.7437939 23.54386134 5.76275952 20.6244335 4.78125 17.70507812 C4.16097269 15.84651618 3.54116392 13.98779777 2.921875 12.12890625 C2.62819031 11.25706192 2.33450562 10.38521759 2.03192139 9.48695374 C1.76454163 8.67858566 1.49716187 7.87021759 1.22167969 7.03735352 C0.98503601 6.32805191 0.74839233 5.61875031 0.50457764 4.88795471 C0 3 0 3 0 0 Z " fill="#060707" transform="translate(115,153)"/>
<path d="M0 0 C2.0625 2.25 2.0625 2.25 3 4 C1.68 5.65 0.36 7.3 -1 9 C-5 7 -5 7 -6.84765625 5.94140625 C-9.30039239 4.8686124 -11.02369929 4.76406726 -13.6875 4.8125 C-14.47511719 4.81894531 -15.26273437 4.82539063 -16.07421875 4.83203125 C-18.00699364 4.79266331 -18.00699364 4.79266331 -19 6 C-19.04063832 7.66617115 -19.042721 9.33388095 -19 11 C-17.91460937 11.30292969 -16.82921875 11.60585937 -15.7109375 11.91796875 C-14.26539716 12.3403669 -12.82009711 12.76358798 -11.375 13.1875 C-10.66214844 13.38408203 -9.94929688 13.58066406 -9.21484375 13.78320312 C-4.10372701 15.30715995 -0.67371574 17.06997851 3 21 C4.20984828 25.60983215 4.09190757 30.67858675 2.0390625 35.04296875 C-1.12939809 39.12967748 -4.82706839 40.71527103 -9.83203125 41.37109375 C-16.94738197 41.52962712 -21.53300876 40.67658287 -27 36 C-28.01375949 35.01395147 -29.01806793 34.01774722 -30 33 C-28.95125002 30.37812506 -28.35068687 29.20628639 -25.875 27.75 C-25.25625 27.5025 -24.6375 27.255 -24 27 C-23.21625 27.825 -22.4325 28.65 -21.625 29.5 C-17.98554639 32.5822167 -14.78774874 32.45527495 -10.171875 32.2734375 C-7.95656079 32.11660753 -7.95656079 32.11660753 -6 31 C-6 29.02 -6 27.04 -6 25 C-9.13348292 23.58487868 -12.14474143 22.72907057 -15.5 22.0625 C-20.07161134 21.082869 -23.42574657 19.76623556 -26.6015625 16.203125 C-29.04175385 12.3588012 -28.74071766 8.38892519 -28 4 C-26.3287757 0.63004153 -23.96348862 -1.4112014 -20.75 -3.375 C-13.0828495 -5.1175342 -6.74146786 -4.13141716 0 0 Z " fill="#070808" transform="translate(311,168)"/>
<path d="M0 0 C2.97 0 5.94 0 9 0 C9 14.19 9 28.38 9 43 C6.03 43 3.06 43 0 43 C0 28.81 0 14.62 0 0 Z " fill="#0C1111" transform="translate(165,165)"/>
<path d="M0 0 C0.33 0 0.66 0 1 0 C1 54.78 1 109.56 1 166 C0.34 166 -0.32 166 -1 166 C-1.33 113.2 -1.66 60.4 -2 6 C-3.32 6.99 -4.64 7.98 -6 9 C-4.47300326 5.56425733 -2.44973747 2.84485642 0 0 Z " fill="#B7DDD3" transform="translate(265,232)"/>
<path d="M0 0 C3.17560981 0.73283303 4.39022307 2.07652087 6.4375 4.5625 C7.88180855 7.45111709 7.81438506 9.35897701 7.4375 12.5625 C4.95147551 15.92594489 3.52324477 17.36307749 -0.625 18.125 C-3.5625 17.5625 -3.5625 17.5625 -5.9375 16.0625 C-7.80497782 13.1894572 -8.19471152 10.95698801 -8.015625 7.53515625 C-7.02591798 3.22651793 -4.18886353 0.91950663 0 0 Z " fill="#757776" transform="translate(323.5625,144.4375)"/>
<path d="M0 0 C0.33 0 0.66 0 1 0 C1.01030746 1.31322739 1.02061493 2.62645477 1.03123474 3.97947693 C1.12878493 16.32605986 1.23150105 28.67259031 1.33933926 41.01908779 C1.39461859 47.36728067 1.44804646 53.7154781 1.49731445 60.0637207 C1.54488427 66.1845268 1.59722412 72.30527486 1.65294075 78.42601204 C1.67339787 80.76689277 1.69210525 83.10778943 1.70907402 85.44869804 C1.73304397 88.71512519 1.76310829 91.98144148 1.79467773 95.24780273 C1.8004332 96.226035 1.80618866 97.20426727 1.81211853 98.21214294 C1.82190735 99.09700378 1.83169617 99.98186462 1.84178162 100.89353943 C1.84823417 101.66692374 1.85468672 102.44030806 1.8613348 103.23712826 C1.81008479 105.02657831 1.81008479 105.02657831 3 106 C2.93408275 114.48684611 0.90852573 122.77773506 -1 131 C-3 130 -3 130 -3.6328125 128.14453125 C-5.55226824 119.04996713 -5.55226824 119.04996713 -5 115 C-4.34352478 114.33825272 -3.68704956 113.67650543 -3.01068115 112.9947052 C-0.03276264 108.55939827 -0.42806071 104.5663476 -0.45410156 99.3347168 C-0.44376389 98.2610939 -0.43342621 97.18747101 -0.42277527 96.08131409 C-0.39330762 92.53712993 -0.3918472 88.99351588 -0.390625 85.44921875 C-0.37564611 82.99012663 -0.35891958 80.53104458 -0.34051514 78.07197571 C-0.2967972 71.60293113 -0.27683247 65.13402228 -0.26177979 58.66485596 C-0.2422249 52.06229614 -0.200253 45.45988324 -0.16015625 38.85742188 C-0.08480583 25.90499766 -0.03378216 12.95259591 0 0 Z " fill="#BADCDC" transform="translate(264,64)"/>
<path d="M0 0 C3.0625 2.1875 3.0625 2.1875 5 5 C5 6.65 5 8.3 5 10 C-1.27 10 -7.54 10 -14 10 C-13 4 -13 4 -11.5 1.625 C-7.75229535 -0.81100802 -4.33868986 -0.89553029 0 0 Z " fill="#97C9CB" transform="translate(205,172)"/>
<path d="M0 0 C5.31975008 0.07759765 8.73590895 2.27961037 12.875 5.4375 C10.895 8.4075 10.895 8.4075 8.875 11.4375 C-3.65988372 9.90261628 -3.65988372 9.90261628 -6.125 7.4375 C-6.3125 5 -6.3125 5 -6.125 2.4375 C-3.78739424 0.09989424 -3.19241017 0.09454873 0 0 Z " fill="#F6F6F6" transform="translate(297.125,171.5625)"/>
<path d="M0 0 C3.73487777 0.4979837 5.81237635 0.87491756 9 3 C9.375 6 9.375 6 9 9 C5.74917327 11.16721782 4.70767847 11.27221018 0.9375 11.25 C0.05964844 11.25515625 -0.81820313 11.2603125 -1.72265625 11.265625 C-4 11 -4 11 -6 9 C-5.34 9 -4.68 9 -4 9 C-2.47700477 6.06279492 -1.19899698 3.0831351 0 0 Z " fill="#97CEB0" transform="translate(297,190)"/>
<path d="M0 0 C1.04318738 3.23680571 0.92287835 5.45548417 0.22265625 8.765625 C0.03896484 9.65507812 -0.14472656 10.54453125 -0.33398438 11.4609375 C-0.53314453 12.38132813 -0.73230469 13.30171875 -0.9375 14.25 C-1.13279297 15.18585938 -1.32808594 16.12171875 -1.52929688 17.0859375 C-2.01176705 19.39238027 -2.50224577 21.696816 -3 24 C-5 23 -5 23 -5.6328125 21.14453125 C-6.13419851 18.76891657 -6.58787858 16.39270493 -7 14 C-7.185625 12.989375 -7.37125 11.97875 -7.5625 10.9375 C-6.65684952 6.20799192 -3.32173765 3.33868529 0 0 Z " fill="#F2F2F2" transform="translate(266,171)"/>
<path d="M0 0 C2.97 0 5.94 0 9 0 C9 2.97 9 5.94 9 9 C2.84765625 9.09765625 2.84765625 9.09765625 1 9 C0 8 0 8 -0.09765625 6.15234375 C-0.06510417 4.1015625 -0.03255208 2.05078125 0 0 Z " fill="#13191A" transform="translate(165,150)"/>
<path d="M0 0 C2.42560244 3.63840366 3 5.62106251 3 10 C1.30847236 12.66402671 -0.72154049 14.82720818 -3 17 C-4.56393356 13.02623171 -3.36145292 10.18622097 -2.0625 6.25 C-1.68222656 5.07953125 -1.30195313 3.9090625 -0.91015625 2.703125 C-0.60980469 1.81109375 -0.30945313 0.9190625 0 0 Z " fill="#8EBABB" transform="translate(250,178)"/>
<path d="M0 0 C2.31 0.33 4.62 0.66 7 1 C7 3.64 7 6.28 7 9 C6.01 8.67 5.02 8.34 4 8 C4 7.34 4 6.68 4 6 C3.34 6 2.68 6 2 6 C2 6.99 2 7.98 2 9 C1.34 9 0.68 9 0 9 C0 6.03 0 3.06 0 0 Z " fill="#252525" transform="translate(320,149)"/>
<path d="M0 0 C2.31 0.33 4.62 0.66 7 1 C7.33 2.98 7.66 4.96 8 7 C7.01 7.66 6.02 8.32 5 9 C5.33 7.02 5.66 5.04 6 3 C3.03 2.505 3.03 2.505 0 2 C0 1.34 0 0.68 0 0 Z " fill="#F3F4F3" transform="translate(321,147)"/>
<path d="M0 0 C0 2.64 0 5.28 0 8 C-3 7 -3 7 -5 4 C-5 3.01 -5 2.02 -5 1 C-2 0 -2 0 0 0 Z " fill="#454545" transform="translate(327,150)"/>
<path d="M0 0 C0.33 0 0.66 0 1 0 C1.2519555 3.02346601 1.20421041 4.6402007 -0.3125 7.3125 C-0.869375 7.869375 -1.42625 8.42625 -2 9 C-2.99 9 -3.98 9 -5 9 C-3.97448721 5.92346162 -3.19203004 5.19203004 -1 3 C-0.67 2.01 -0.34 1.02 0 0 Z " fill="#91B5A3" transform="translate(329,151)"/>
</svg>
