<?xml version="1.0" encoding="UTF-8"?>
<svg version="1.1" xmlns="http://www.w3.org/2000/svg" width="48" height="48">
<path d="M0 0 C1.051875 -0.00257813 2.10375 -0.00515625 3.1875 -0.0078125 C4.280625 -0.00007812 5.37375 0.00765625 6.5 0.015625 C7.593125 0.00789062 8.68625 0.00015625 9.8125 -0.0078125 C10.864375 -0.00523437 11.91625 -0.00265625 13 0 C14.43859375 0.00338379 14.43859375 0.00338379 15.90625 0.00683594 C18.5 0.265625 18.5 0.265625 22.5 2.265625 C22.5 13.485625 22.5 24.705625 22.5 36.265625 C18.29572453 37.94733519 16.60063273 38.5202129 12.375 38.53125 C11.42109375 38.53382812 10.4671875 38.53640625 9.484375 38.5390625 C8.49953125 38.53132813 7.5146875 38.52359375 6.5 38.515625 C5.02273437 38.52722656 5.02273437 38.52722656 3.515625 38.5390625 C2.08476562 38.53519531 2.08476562 38.53519531 0.625 38.53125 C-0.23867188 38.52899414 -1.10234375 38.52673828 -1.9921875 38.52441406 C-4.5 38.265625 -4.5 38.265625 -9.5 36.265625 C-9.5 25.045625 -9.5 13.825625 -9.5 2.265625 C-5.59942863 0.31533932 -4.17079939 0.00981035 0 0 Z " fill="#1D5BB8" transform="translate(17.5,4.734375)"/>
<path d="M0 0 C1.051875 -0.00257813 2.10375 -0.00515625 3.1875 -0.0078125 C4.280625 -0.00007812 5.37375 0.00765625 6.5 0.015625 C7.593125 0.00789062 8.68625 0.00015625 9.8125 -0.0078125 C10.864375 -0.00523437 11.91625 -0.00265625 13 0 C14.43859375 0.00338379 14.43859375 0.00338379 15.90625 0.00683594 C18.56959508 0.27256879 20.21617733 0.90960529 22.5 2.265625 C22.55399736 3.72355384 22.59279177 5.18205212 22.625 6.640625 C22.64820313 7.45273438 22.67140625 8.26484375 22.6953125 9.1015625 C22.5 11.265625 22.5 11.265625 20.5 13.265625 C11.56190352 15.25186866 1.4671113 14.95753279 -7.5 13.265625 C-9.5 11.265625 -9.5 11.265625 -9.6953125 9.1015625 C-9.67210937 8.28945312 -9.64890625 7.47734375 -9.625 6.640625 C-9.60695313 5.82335937 -9.58890625 5.00609375 -9.5703125 4.1640625 C-9.54710937 3.53757812 -9.52390625 2.91109375 -9.5 2.265625 C-6.23340755 0.32608573 -3.77581462 0.00888128 0 0 Z " fill="#2C7AD3" transform="translate(17.5,4.734375)"/>
<path d="M0 0 C1.14339844 0.32484375 2.28679688 0.6496875 3.46484375 0.984375 C7.88317005 2.08530949 12.02621783 2.29926279 16.5625 2.25 C17.63661133 2.26160156 17.63661133 2.26160156 18.73242188 2.2734375 C23.50960235 2.25605013 27.46440278 1.50193233 32 0 C32 3.3 32 6.6 32 10 C28.48405109 11.58627265 25.72599092 12.25556644 21.875 12.265625 C20.92109375 12.26820312 19.9671875 12.27078125 18.984375 12.2734375 C17.99953125 12.26570313 17.0146875 12.25796875 16 12.25 C14.52273437 12.26160156 14.52273437 12.26160156 13.015625 12.2734375 C11.58476562 12.26957031 11.58476562 12.26957031 10.125 12.265625 C9.26132812 12.26336914 8.39765625 12.26111328 7.5078125 12.25878906 C4.71457254 11.97054584 2.54944209 11.15021872 0 10 C0 6.7 0 3.4 0 0 Z " fill="#103F8C" transform="translate(8,31)"/>
<path d="M0 0 C1.09763672 -0.01224609 2.19527344 -0.02449219 3.32617188 -0.03710938 C4.91075195 -0.04000977 4.91075195 -0.04000977 6.52734375 -0.04296875 C7.492771 -0.04707764 8.45819824 -0.05118652 9.45288086 -0.05541992 C12.13403101 0.19415856 13.76768962 0.82009786 16.0625 2.1875 C16.0625 2.8475 16.0625 3.5075 16.0625 4.1875 C5.37539571 7.1356667 -5.25039571 7.1356667 -15.9375 4.1875 C-15.6075 3.1975 -15.2775 2.2075 -14.9375 1.1875 C-10.07807848 -0.43230717 -5.08821595 0.00297731 0 0 Z " fill="#41A2ED" transform="translate(23.9375,4.8125)"/>
<path d="M0 0 C1.65 0 3.3 0 5 0 C5 0.66 5 1.32 5 2 C5.66 1.34 6.32 0.68 7 0 C9.5625 -0.1875 9.5625 -0.1875 12 0 C14.04698414 2.04698414 13.70045693 6.30411241 14 9 C12.906875 8.835 11.81375 8.67 10.6875 8.5 C7.12474127 7.93281816 7.12474127 7.93281816 4 8 C2.33333333 8 0.66666667 8 -1 8 C-1 7.34 -1 6.68 -1 6 C-0.34 5.67 0.32 5.34 1 5 C0.67 3.35 0.34 1.7 0 0 Z " fill="#B7CAE7" transform="translate(15,22)"/>
<path d="M0 0 C1.2065625 0.0309375 1.2065625 0.0309375 2.4375 0.0625 C2.7675 0.7225 3.0975 1.3825 3.4375 2.0625 C2.5 4.1875 2.5 4.1875 1.4375 6.0625 C0.1175 5.7325 -1.2025 5.4025 -2.5625 5.0625 C-3.125 3.125 -3.125 3.125 -3.5625 1.0625 C-2.5625 0.0625 -2.5625 0.0625 0 0 Z " fill="#80A3D7" transform="translate(24.5625,21.9375)"/>
<path d="M0 0 C0.99 1.485 0.99 1.485 2 3 C2.99 3 3.98 3 5 3 C5.66 2.01 6.32 1.02 7 0 C7.33 2.31 7.66 4.62 8 7 C1.125 6.125 1.125 6.125 0 5 C-0.04063832 3.33382885 -0.042721 1.66611905 0 0 Z " fill="#E0E9F5" transform="translate(21,24)"/>
<path d="M0 0 C0.66 0 1.32 0 2 0 C2 1.98 2 3.96 2 6 C2.99 6 3.98 6 5 6 C5 6.66 5 7.32 5 8 C3.35 8 1.7 8 0 8 C0 5.36 0 2.72 0 0 Z " fill="#CCDBEF" transform="translate(30,22)"/>
</svg>
